#N canvas 552 33 813 770 12;
#X obj 171 153 bng 15 250 50 0 empty empty empty 17 7 0 10 #fcfcfc
#000000 #000000;
#X obj 142 198 int 1;
#X obj 577 26 f;
#X text 618 27 Alt way to wriite int;
#X obj 215 200 + 1;
#X obj 178 338 + 1;
#X floatatom 177 372 5 0 0 0 - - - 0;
#X text 265 208 sequence adds 1;
#X text 270 251 Modulo mathematical function;
#X text 273 284 Divides count by number of totoal steps remainder is
step count;
#X text 448 95 converting to bpm \, creating a variable;
#X msg 265 87 tempo \$1 permin;
#X obj 103 509 bng 15 250 50 0 empty empty empty 17 7 0 10 #fcfcfc
#000000 #000000;
#X obj 187 478 bng 15 250 50 0 empty empty empty 17 7 0 10 #fcfcfc
#000000 #000000;
#X obj 276 470 bng 15 250 50 0 empty empty empty 17 7 0 10 #fcfcfc
#000000 #000000;
#X obj 382 471 bng 15 250 50 0 empty empty empty 17 7 0 10 #fcfcfc
#000000 #000000;
#X obj 487 469 bng 15 250 50 0 empty empty empty 17 7 0 10 #fcfcfc
#000000 #000000;
#X obj 585 470 bng 15 250 50 0 empty empty empty 17 7 0 10 #fcfcfc
#000000 #000000;
#X obj 691 471 bng 15 250 50 0 empty empty empty 17 7 0 10 #fcfcfc
#000000 #000000;
#X floatatom 639 397 5 0 0 0 - - - 0;
#X text 342 396 Nobody knows how tf this works;
#X floatatom 184 519 5 0 0 0 - - - 0;
#X floatatom 273 514 5 0 0 0 - - - 0;
#X floatatom 374 517 5 0 0 0 - - - 0;
#X floatatom 477 516 5 0 0 0 - - - 0;
#X floatatom 584 515 5 0 0 0 - - - 0;
#X floatatom 697 512 5 0 0 0 - - - 0;
#X floatatom 97 543 5 0 0 0 - - - 0;
#X obj 299 567 select 0;
#X obj 300 605 mtof;
#X floatatom 301 641 5 0 0 0 - - - 0;
#X obj 289 678 phasor~;
#X obj 606 760 expr~ $v1 > $v2;
#X floatatom 712 673 5 0 0 0 - - - 0;
#X text 763 685 pulse width modulation;
#X text 767 716 phase ramp signal sawtooth \, triangle \, square;
#X obj 683 821 lop~ 500;
#X floatatom 776 773 5 0 0 0 - - - 0;
#X obj 893 754 vsl 15 128 0 3000 0 0 empty empty empty 0 -9 0 10 #ffe3c6
#000000 #000000 0 1;
#X obj 298 855 output~;
#X obj 301 801 *~ 0.75;
#X obj 709 716 / 100;
#X msg 613 208 100, f 6;
#X obj 387 -188 loadbang;
#X floatatom 175 248 5 0 0 0 - - - 0;
#X floatatom 527 227 5 0 0 0 - - - 0;
#X obj 285 -68 line;
#X floatatom 394 -66 5 0 0 0 - - - 0;
#X msg 408 -129 100 5000;
#X msg 288 -124 1000 5000;
#X obj 173 -110 bng 15 250 50 0 empty empty empty 17 7 0 10 #fcfcfc
#000000 #000000;
#X obj 344 16 bng 15 250 50 0 empty empty empty 17 7 0 10 #fcfcfc #000000
#000000;
#X obj 457 48 bng 15 250 50 0 empty empty empty 17 7 0 10 #fcfcfc #000000
#000000;
#X obj 172 417 select 0 1 2 3 4 5 6 7;
#X obj 743 603 loadbang;
#X msg 730 638 180;
#X msg 59 477 57;
#X obj 227 691 osc~;
#X obj 83 427 loadbang;
#X obj 773 465 bng 15 250 50 0 empty empty empty 17 7 0 10 #fcfcfc
#000000 #000000;
#X floatatom 779 506 5 0 0 0 - - - 0;
#X msg 146 485 59;
#X msg 227 481 61;
#X msg 326 479 63;
#X msg 424 472 65;
#X msg 522 469 66;
#X msg 641 475 68;
#X msg 728 465 69;
#X obj 178 294 % 8;
#X obj 177 112 metro;
#X obj 301 -20 delay 6000;
#X obj 425 -4 delay 6000;
#X text 489 -128 line clock which speeds up and slows down the tempo
;
#X text -173 523 notes of the A harmonic minor scale;
#X text 307 718 synth noises;
#X text 76 -135 Click here to start;
#X connect 0 0 1 0;
#X connect 1 0 4 0;
#X connect 1 0 44 0;
#X connect 4 0 1 1;
#X connect 5 0 6 0;
#X connect 6 0 53 0;
#X connect 11 0 69 0;
#X connect 12 0 27 0;
#X connect 13 0 21 0;
#X connect 14 0 22 0;
#X connect 15 0 23 0;
#X connect 16 0 24 0;
#X connect 17 0 25 0;
#X connect 18 0 26 0;
#X connect 21 0 28 0;
#X connect 22 0 28 0;
#X connect 23 0 28 0;
#X connect 24 0 28 0;
#X connect 25 0 28 0;
#X connect 26 0 28 0;
#X connect 27 0 28 0;
#X connect 28 1 29 0;
#X connect 29 0 30 0;
#X connect 30 0 57 0;
#X connect 30 0 31 0;
#X connect 31 0 40 0;
#X connect 33 0 41 0;
#X connect 37 0 36 0;
#X connect 38 0 37 0;
#X connect 40 0 39 0;
#X connect 40 0 39 1;
#X connect 41 0 32 1;
#X connect 42 0 45 0;
#X connect 44 0 68 0;
#X connect 46 0 11 0;
#X connect 47 0 46 2;
#X connect 48 0 46 0;
#X connect 49 0 46 0;
#X connect 50 0 49 0;
#X connect 50 0 69 0;
#X connect 50 0 70 0;
#X connect 51 0 48 0;
#X connect 51 0 71 0;
#X connect 52 0 49 0;
#X connect 52 0 70 0;
#X connect 53 1 12 0;
#X connect 53 2 13 0;
#X connect 53 3 14 0;
#X connect 53 4 15 0;
#X connect 53 5 16 0;
#X connect 53 6 17 0;
#X connect 53 7 18 0;
#X connect 53 8 59 0;
#X connect 54 0 55 0;
#X connect 55 0 33 0;
#X connect 56 0 27 0;
#X connect 57 0 40 0;
#X connect 58 0 56 0;
#X connect 58 0 61 0;
#X connect 58 0 62 0;
#X connect 58 0 63 0;
#X connect 58 0 64 0;
#X connect 58 0 65 0;
#X connect 58 0 66 0;
#X connect 58 0 67 0;
#X connect 59 0 60 0;
#X connect 60 0 28 0;
#X connect 61 0 21 0;
#X connect 62 0 22 0;
#X connect 63 0 23 0;
#X connect 64 0 24 0;
#X connect 65 0 25 0;
#X connect 66 0 26 0;
#X connect 67 0 60 0;
#X connect 68 0 5 0;
#X connect 69 0 0 0;
#X connect 70 0 51 0;
#X connect 71 0 52 0;
