{
	"patcher" : 	{
		"fileversion" : 1,
		"appversion" : 		{
			"major" : 8,
			"minor" : 3,
			"revision" : 1,
			"architecture" : "x64",
			"modernui" : 1
		}
,
		"classnamespace" : "box",
		"rect" : [ 0.0, 0.0, 640.0, 480.0 ],
		"bglocked" : 0,
		"openinpresentation" : 0,
		"default_fontsize" : 12.0,
		"default_fontface" : 0,
		"default_fontname" : "Arial",
		"gridonopen" : 1,
		"gridsize" : [ 15.0, 15.0 ],
		"gridsnaponopen" : 1,
		"objectsnaponopen" : 1,
		"statusbarvisible" : 2,
		"toolbarvisible" : 1,
		"lefttoolbarpinned" : 0,
		"toptoolbarpinned" : 0,
		"righttoolbarpinned" : 0,
		"bottomtoolbarpinned" : 0,
		"toolbars_unpinned_last_save" : 0,
		"tallnewobj" : 0,
		"boxanimatetime" : 200,
		"enablehscroll" : 1,
		"enablevscroll" : 1,
		"devicewidth" : 0.0,
		"description" : "",
		"digest" : "",
		"tags" : "",
		"style" : "",
		"subpatcher_template" : "",
		"assistshowspatchername" : 0,
		"boxes" : [ 			{
				"box" : 				{
					"id" : "obj-36",
					"linecount" : 4,
					"maxclass" : "comment",
					"numinlets" : 1,
					"numoutlets" : 0,
					"patching_rect" : [ 1473.0, 822.0, 150.0, 60.0 ],
					"presentation" : 1,
					"presentation_linecount" : 4,
					"presentation_rect" : [ 1225.0, 590.0, 150.0, 60.0 ],
					"text" : "Safety check. If the screen is red, do not unmute me. Your ears will be destroyed."
				}

			}
, 			{
				"box" : 				{
					"id" : "obj-32",
					"maxclass" : "comment",
					"numinlets" : 1,
					"numoutlets" : 0,
					"patching_rect" : [ 127.0, 23.0, 150.0, 20.0 ],
					"text" : "put video in here"
				}

			}
, 			{
				"box" : 				{
					"id" : "obj-30",
					"linecount" : 5,
					"maxclass" : "comment",
					"numinlets" : 1,
					"numoutlets" : 0,
					"patching_rect" : [ 538.0, 235.0, 150.0, 74.0 ],
					"presentation" : 1,
					"presentation_linecount" : 2,
					"presentation_rect" : [ 929.0, 1103.0, 286.0, 33.0 ],
					"text" : "Make sure to download the video from the github, go into edit mode, and drag it into the PLAYR object "
				}

			}
, 			{
				"box" : 				{
					"id" : "obj-28",
					"maxclass" : "comment",
					"numinlets" : 1,
					"numoutlets" : 0,
					"patching_rect" : [ 578.0, 343.0, 150.0, 20.0 ],
					"presentation" : 1,
					"presentation_rect" : [ 531.0, 398.5, 150.0, 20.0 ],
					"text" : "preset"
				}

			}
, 			{
				"box" : 				{
					"id" : "obj-26",
					"maxclass" : "comment",
					"numinlets" : 1,
					"numoutlets" : 0,
					"patching_rect" : [ 446.0, 280.0, 150.0, 20.0 ],
					"presentation" : 1,
					"presentation_rect" : [ 42.0, 367.0, 150.0, 20.0 ],
					"text" : "turn on color oscilator"
				}

			}
, 			{
				"box" : 				{
					"id" : "obj-24",
					"maxclass" : "comment",
					"numinlets" : 1,
					"numoutlets" : 0,
					"patching_rect" : [ 934.0, 386.0, 150.0, 20.0 ],
					"presentation" : 1,
					"presentation_rect" : [ 271.0, 367.0, 150.0, 20.0 ],
					"text" : "turn on color reader"
				}

			}
, 			{
				"box" : 				{
					"id" : "obj-22",
					"maxclass" : "comment",
					"numinlets" : 1,
					"numoutlets" : 0,
					"patching_rect" : [ 839.0, 460.0, 150.0, 20.0 ],
					"presentation" : 1,
					"presentation_rect" : [ 724.0, 408.0, 150.0, 20.0 ],
					"text" : "on / off"
				}

			}
, 			{
				"box" : 				{
					"id" : "obj-10",
					"maxclass" : "comment",
					"numinlets" : 1,
					"numoutlets" : 0,
					"patching_rect" : [ 787.0, 329.0, 150.0, 20.0 ],
					"presentation" : 1,
					"presentation_rect" : [ 650.0, 351.0, 150.0, 20.0 ],
					"text" : "volume"
				}

			}
, 			{
				"box" : 				{
					"bubblesize" : 60,
					"fontsize" : 64.0,
					"id" : "obj-2",
					"maxclass" : "preset",
					"numinlets" : 1,
					"numoutlets" : 5,
					"outlettype" : [ "preset", "int", "preset", "int", "" ],
					"patching_rect" : [ 1203.0, 252.0, 100.0, 40.0 ],
					"presentation" : 1,
					"presentation_rect" : [ 521.0, 434.5, 68.0, 68.0 ],
					"preset_data" : [ 						{
							"number" : 1,
							"data" : [ 6, "obj-18", "gain~", "list", 51, 10.0 ]
						}
 ]
				}

			}
, 			{
				"box" : 				{
					"id" : "obj-18",
					"maxclass" : "gain~",
					"multichannelvariant" : 0,
					"numinlets" : 1,
					"numoutlets" : 2,
					"outlettype" : [ "signal", "" ],
					"parameter_enable" : 0,
					"patching_rect" : [ 740.0, 801.0, 22.0, 140.0 ],
					"presentation" : 1,
					"presentation_rect" : [ 659.0, 398.5, 22.0, 140.0 ]
				}

			}
, 			{
				"box" : 				{
					"bgmode" : 0,
					"border" : 0,
					"clickthrough" : 0,
					"enablehscroll" : 0,
					"enablevscroll" : 0,
					"extract" : 1,
					"id" : "obj-11",
					"lockeddragscroll" : 0,
					"lockedsize" : 0,
					"maxclass" : "bpatcher",
					"name" : "bp.Big Scope.maxpat",
					"numinlets" : 2,
					"numoutlets" : 1,
					"offset" : [ 0.0, 0.0 ],
					"outlettype" : [ "signal" ],
					"patching_rect" : [ 1144.0, 746.0, 372.0, 214.0 ],
					"presentation" : 1,
					"presentation_rect" : [ 898.0, 691.0, 372.0, 214.0 ],
					"varname" : "bp.Big Scope",
					"viewvisibility" : 1
				}

			}
, 			{
				"box" : 				{
					"annotation" : "## An LFO-based VIZZIE data generator ##",
					"bgmode" : 1,
					"border" : 0,
					"clickthrough" : 0,
					"enablehscroll" : 0,
					"enablevscroll" : 0,
					"id" : "obj-1",
					"lockeddragscroll" : 0,
					"lockedsize" : 0,
					"maxclass" : "bpatcher",
					"name" : "vz.oscil8r.maxpat",
					"numinlets" : 4,
					"numoutlets" : 1,
					"offset" : [ 0.0, 0.0 ],
					"outlettype" : [ "" ],
					"patching_rect" : [ 261.0, 332.0, 200.0, 146.0 ],
					"presentation" : 1,
					"presentation_rect" : [ 17.0, 408.0, 200.0, 146.0 ],
					"prototypename" : "pixl",
					"varname" : "oscil8r",
					"viewvisibility" : 1
				}

			}
, 			{
				"box" : 				{
					"annotation" : "## View or monitor video input ##",
					"bgmode" : 1,
					"border" : 0,
					"clickthrough" : 0,
					"enablehscroll" : 0,
					"enablevscroll" : 0,
					"id" : "obj-19",
					"lockeddragscroll" : 0,
					"lockedsize" : 0,
					"maxclass" : "bpatcher",
					"name" : "vz.viewr.maxpat",
					"numinlets" : 1,
					"numoutlets" : 0,
					"offset" : [ 0.0, 0.0 ],
					"patching_rect" : [ 275.0, 831.0, 230.0, 208.0 ],
					"presentation" : 1,
					"presentation_rect" : [ 17.0, 562.0, 854.0, 765.0 ],
					"prototypename" : "pixl",
					"varname" : "viewr",
					"viewvisibility" : 1
				}

			}
, 			{
				"box" : 				{
					"annotation" : "## Procedurally colorize a video image ##",
					"bgmode" : 1,
					"border" : 0,
					"clickthrough" : 0,
					"enablehscroll" : 0,
					"enablevscroll" : 0,
					"id" : "obj-15",
					"lockeddragscroll" : 0,
					"lockedsize" : 0,
					"maxclass" : "bpatcher",
					"name" : "vz.colorizr.maxpat",
					"numinlets" : 4,
					"numoutlets" : 1,
					"offset" : [ 0.0, 0.0 ],
					"outlettype" : [ "jit_gl_texture" ],
					"patching_rect" : [ 545.0, 605.0, 138.0, 130.0 ],
					"prototypename" : "pixl",
					"varname" : "freezr",
					"viewvisibility" : 1
				}

			}
, 			{
				"box" : 				{
					"annotation" : "## Change a video's brightness/contrast/saturation ##",
					"bgmode" : 1,
					"border" : 0,
					"clickthrough" : 0,
					"enablehscroll" : 0,
					"enablevscroll" : 0,
					"id" : "obj-35",
					"lockeddragscroll" : 0,
					"lockedsize" : 0,
					"maxclass" : "bpatcher",
					"name" : "vz.brcosr.maxpat",
					"numinlets" : 7,
					"numoutlets" : 1,
					"offset" : [ 0.0, 0.0 ],
					"outlettype" : [ "jit_gl_texture" ],
					"patching_rect" : [ 316.0, 605.0, 208.0, 130.0 ],
					"prototypename" : "pixl",
					"varname" : "brcosr",
					"viewvisibility" : 1
				}

			}
, 			{
				"box" : 				{
					"annotation" : "## Create a dutone video image ##",
					"bgmode" : 1,
					"border" : 0,
					"clickthrough" : 0,
					"enablehscroll" : 0,
					"enablevscroll" : 0,
					"id" : "obj-33",
					"lockeddragscroll" : 0,
					"lockedsize" : 0,
					"maxclass" : "bpatcher",
					"name" : "vz.2tonr.maxpat",
					"numinlets" : 9,
					"numoutlets" : 1,
					"offset" : [ 0.0, 0.0 ],
					"outlettype" : [ "jit_gl_texture" ],
					"patching_rect" : [ 65.0, 605.0, 228.0, 130.0 ],
					"prototypename" : "pixl",
					"varname" : "2toner",
					"viewvisibility" : 1
				}

			}
, 			{
				"box" : 				{
					"id" : "obj-9",
					"maxclass" : "ezdac~",
					"numinlets" : 2,
					"numoutlets" : 0,
					"patching_rect" : [ 740.0, 963.0, 45.0, 45.0 ],
					"presentation" : 1,
					"presentation_rect" : [ 724.0, 458.5, 45.0, 45.0 ]
				}

			}
, 			{
				"box" : 				{
					"bgmode" : 0,
					"border" : 0,
					"clickthrough" : 0,
					"enablehscroll" : 0,
					"enablevscroll" : 0,
					"extract" : 1,
					"id" : "obj-8",
					"lockeddragscroll" : 0,
					"lockedsize" : 0,
					"maxclass" : "bpatcher",
					"name" : "bp.Oscillator.maxpat",
					"numinlets" : 6,
					"numoutlets" : 2,
					"offset" : [ 0.0, 0.0 ],
					"outlettype" : [ "signal", "signal" ],
					"patching_rect" : [ 772.0, 532.0, 314.0, 116.0 ],
					"presentation" : 1,
					"presentation_rect" : [ 898.0, 562.0, 314.0, 116.0 ],
					"varname" : "bp.Oscillator",
					"viewvisibility" : 1
				}

			}
, 			{
				"box" : 				{
					"annotation" : "## Convert video input for use with BEAP modules ##",
					"bgmode" : 1,
					"border" : 0,
					"clickthrough" : 0,
					"enablehscroll" : 0,
					"enablevscroll" : 0,
					"id" : "obj-7",
					"lockeddragscroll" : 0,
					"lockedsize" : 0,
					"maxclass" : "bpatcher",
					"name" : "vz.vizzieconvertr.maxpat",
					"numinlets" : 1,
					"numoutlets" : 5,
					"offset" : [ 0.0, 0.0 ],
					"outlettype" : [ "signal", "signal", "signal", "signal", "" ],
					"patching_rect" : [ 693.0, 240.0, 186.0, 108.0 ],
					"varname" : "vizzieconvertr",
					"viewvisibility" : 1
				}

			}
, 			{
				"box" : 				{
					"id" : "obj-5",
					"linecount" : 2,
					"maxclass" : "message",
					"numinlets" : 2,
					"numoutlets" : 1,
					"outlettype" : [ "" ],
					"patching_rect" : [ 261.0, 233.0, 50.0, 35.0 ],
					"text" : "0.650527"
				}

			}
, 			{
				"box" : 				{
					"annotation" : "## Fader/UI display for VIZZIE data ##",
					"bgmode" : 1,
					"border" : 0,
					"clickthrough" : 0,
					"enablehscroll" : 0,
					"enablevscroll" : 0,
					"id" : "obj-3",
					"lockeddragscroll" : 0,
					"lockedsize" : 0,
					"maxclass" : "bpatcher",
					"name" : "vz.fadr.maxpat",
					"numinlets" : 1,
					"numoutlets" : 1,
					"offset" : [ 0.0, 0.0 ],
					"outlettype" : [ "" ],
					"patching_rect" : [ 83.0, 233.0, 84.0, 196.0 ],
					"varname" : "fadr",
					"viewvisibility" : 1
				}

			}
, 			{
				"box" : 				{
					"annotation" : "## Convert R, G, and B video components to VIZZIE data ##",
					"bgmode" : 1,
					"border" : 0,
					"clickthrough" : 0,
					"enablehscroll" : 0,
					"enablevscroll" : 0,
					"id" : "obj-16",
					"lockeddragscroll" : 0,
					"lockedsize" : 0,
					"maxclass" : "bpatcher",
					"name" : "vz.analyzr.maxpat",
					"numinlets" : 5,
					"numoutlets" : 3,
					"offset" : [ 0.0, 0.0 ],
					"outlettype" : [ "", "", "" ],
					"patching_rect" : [ 443.0, 96.0, 208.0, 113.0 ],
					"presentation" : 1,
					"presentation_rect" : [ 246.0, 408.0, 209.0, 121.0 ],
					"prototypename" : "pixl",
					"varname" : "analyzr",
					"viewvisibility" : 1
				}

			}
, 			{
				"box" : 				{
					"annotation" : "## The VIZZIE video player/looper ##",
					"bgmode" : 1,
					"border" : 0,
					"clickthrough" : 0,
					"enablehscroll" : 0,
					"enablevscroll" : 0,
					"id" : "obj-6",
					"lockeddragscroll" : 0,
					"lockedsize" : 0,
					"maxclass" : "bpatcher",
					"name" : "vz.playr.maxpat",
					"numinlets" : 7,
					"numoutlets" : 2,
					"offset" : [ 0.0, 0.0 ],
					"outlettype" : [ "jit_gl_texture", "" ],
					"patching_rect" : [ 43.0, 55.0, 348.0, 158.0 ],
					"presentation" : 1,
					"presentation_rect" : [ 898.0, 926.0, 348.0, 158.0 ],
					"prototypename" : "pixl",
					"varname" : "playr",
					"viewvisibility" : 1
				}

			}
 ],
		"lines" : [ 			{
				"patchline" : 				{
					"destination" : [ "obj-33", 5 ],
					"source" : [ "obj-1", 0 ]
				}

			}
, 			{
				"patchline" : 				{
					"destination" : [ "obj-16", 0 ],
					"order" : 1,
					"source" : [ "obj-15", 0 ]
				}

			}
, 			{
				"patchline" : 				{
					"destination" : [ "obj-19", 0 ],
					"order" : 0,
					"source" : [ "obj-15", 0 ]
				}

			}
, 			{
				"patchline" : 				{
					"destination" : [ "obj-1", 0 ],
					"order" : 1,
					"source" : [ "obj-16", 0 ]
				}

			}
, 			{
				"patchline" : 				{
					"destination" : [ "obj-7", 0 ],
					"order" : 0,
					"source" : [ "obj-16", 0 ]
				}

			}
, 			{
				"patchline" : 				{
					"destination" : [ "obj-9", 1 ],
					"order" : 0,
					"source" : [ "obj-18", 0 ]
				}

			}
, 			{
				"patchline" : 				{
					"destination" : [ "obj-9", 0 ],
					"order" : 1,
					"source" : [ "obj-18", 0 ]
				}

			}
, 			{
				"patchline" : 				{
					"destination" : [ "obj-1", 3 ],
					"order" : 5,
					"source" : [ "obj-2", 0 ]
				}

			}
, 			{
				"patchline" : 				{
					"destination" : [ "obj-1", 2 ],
					"order" : 10,
					"source" : [ "obj-2", 0 ]
				}

			}
, 			{
				"patchline" : 				{
					"destination" : [ "obj-1", 1 ],
					"order" : 17,
					"source" : [ "obj-2", 0 ]
				}

			}
, 			{
				"patchline" : 				{
					"destination" : [ "obj-15", 3 ],
					"order" : 11,
					"source" : [ "obj-2", 0 ]
				}

			}
, 			{
				"patchline" : 				{
					"destination" : [ "obj-15", 2 ],
					"order" : 14,
					"source" : [ "obj-2", 0 ]
				}

			}
, 			{
				"patchline" : 				{
					"destination" : [ "obj-15", 1 ],
					"order" : 19,
					"source" : [ "obj-2", 0 ]
				}

			}
, 			{
				"patchline" : 				{
					"destination" : [ "obj-18", 0 ],
					"order" : 0,
					"source" : [ "obj-2", 0 ]
				}

			}
, 			{
				"patchline" : 				{
					"destination" : [ "obj-33", 8 ],
					"order" : 2,
					"source" : [ "obj-2", 0 ]
				}

			}
, 			{
				"patchline" : 				{
					"destination" : [ "obj-33", 7 ],
					"order" : 4,
					"source" : [ "obj-2", 0 ]
				}

			}
, 			{
				"patchline" : 				{
					"destination" : [ "obj-33", 6 ],
					"order" : 7,
					"source" : [ "obj-2", 0 ]
				}

			}
, 			{
				"patchline" : 				{
					"destination" : [ "obj-33", 5 ],
					"order" : 8,
					"source" : [ "obj-2", 0 ]
				}

			}
, 			{
				"patchline" : 				{
					"destination" : [ "obj-33", 4 ],
					"order" : 12,
					"source" : [ "obj-2", 0 ]
				}

			}
, 			{
				"patchline" : 				{
					"destination" : [ "obj-33", 3 ],
					"order" : 15,
					"source" : [ "obj-2", 0 ]
				}

			}
, 			{
				"patchline" : 				{
					"destination" : [ "obj-33", 2 ],
					"order" : 18,
					"source" : [ "obj-2", 0 ]
				}

			}
, 			{
				"patchline" : 				{
					"destination" : [ "obj-33", 1 ],
					"order" : 21,
					"source" : [ "obj-2", 0 ]
				}

			}
, 			{
				"patchline" : 				{
					"destination" : [ "obj-35", 6 ],
					"order" : 3,
					"source" : [ "obj-2", 0 ]
				}

			}
, 			{
				"patchline" : 				{
					"destination" : [ "obj-35", 5 ],
					"order" : 6,
					"source" : [ "obj-2", 0 ]
				}

			}
, 			{
				"patchline" : 				{
					"destination" : [ "obj-35", 4 ],
					"order" : 9,
					"source" : [ "obj-2", 0 ]
				}

			}
, 			{
				"patchline" : 				{
					"destination" : [ "obj-35", 3 ],
					"order" : 13,
					"source" : [ "obj-2", 0 ]
				}

			}
, 			{
				"patchline" : 				{
					"destination" : [ "obj-35", 2 ],
					"order" : 16,
					"source" : [ "obj-2", 0 ]
				}

			}
, 			{
				"patchline" : 				{
					"destination" : [ "obj-35", 1 ],
					"order" : 20,
					"source" : [ "obj-2", 0 ]
				}

			}
, 			{
				"patchline" : 				{
					"destination" : [ "obj-8", 4 ],
					"order" : 1,
					"source" : [ "obj-2", 0 ]
				}

			}
, 			{
				"patchline" : 				{
					"destination" : [ "obj-35", 0 ],
					"source" : [ "obj-33", 0 ]
				}

			}
, 			{
				"patchline" : 				{
					"destination" : [ "obj-15", 0 ],
					"source" : [ "obj-35", 0 ]
				}

			}
, 			{
				"patchline" : 				{
					"destination" : [ "obj-3", 0 ],
					"order" : 1,
					"source" : [ "obj-6", 0 ]
				}

			}
, 			{
				"patchline" : 				{
					"destination" : [ "obj-33", 0 ],
					"order" : 0,
					"source" : [ "obj-6", 0 ]
				}

			}
, 			{
				"patchline" : 				{
					"destination" : [ "obj-5", 1 ],
					"source" : [ "obj-6", 1 ]
				}

			}
, 			{
				"patchline" : 				{
					"destination" : [ "obj-8", 0 ],
					"source" : [ "obj-7", 3 ]
				}

			}
, 			{
				"patchline" : 				{
					"destination" : [ "obj-11", 0 ],
					"order" : 1,
					"source" : [ "obj-8", 0 ]
				}

			}
, 			{
				"patchline" : 				{
					"destination" : [ "obj-18", 0 ],
					"order" : 0,
					"source" : [ "obj-8", 0 ]
				}

			}
 ],
		"parameters" : 		{
			"obj-11::obj-1" : [ "divide", "divide", 0 ],
			"obj-11::obj-129" : [ "Points", "Points", 0 ],
			"obj-11::obj-52" : [ "multiply", "multiply", 0 ],
			"obj-11::obj-69" : [ "Lock", "Lock", 0 ],
			"obj-15::obj-104" : [ "pictctrl[47]", "pictctrl[1]", 0 ],
			"obj-15::obj-121" : [ "Invert", "Invert", 0 ],
			"obj-15::obj-128" : [ "range[24]", "range", 0 ],
			"obj-15::obj-24" : [ "Color plane", "Color plane", 0 ],
			"obj-15::obj-25" : [ "Color palette", "Color palette", 0 ],
			"obj-15::obj-26" : [ "pictctrl[46]", "pictctrl[1]", 0 ],
			"obj-15::obj-56::obj-23" : [ "gswitch2[6]", "gswitch2", 0 ],
			"obj-15::obj-6" : [ "range[4]", "range", 0 ],
			"obj-16::obj-1" : [ "textbutton[2]", "textbutton[1]", 0 ],
			"obj-16::obj-17" : [ "pictctrl[36]", "pictctrl[1]", 0 ],
			"obj-16::obj-19" : [ "pictctrl[35]", "pictctrl[1]", 0 ],
			"obj-16::obj-2::obj-23" : [ "gswitch2[2]", "gswitch2", 0 ],
			"obj-16::obj-44" : [ "Red mode", "Red mode", 0 ],
			"obj-16::obj-46" : [ "pictctrl[34]", "pictctrl[1]", 0 ],
			"obj-16::obj-48" : [ "Green mode", "Green mode", 0 ],
			"obj-16::obj-50" : [ "pictctrl[4]", "pictctrl[1]", 0 ],
			"obj-16::obj-54" : [ "Blue mode", "Blue mode", 0 ],
			"obj-16::obj-58" : [ "pictctrl[3]", "pictctrl[1]", 0 ],
			"obj-16::obj-6" : [ "pictctrl[37]", "pictctrl[1]", 0 ],
			"obj-16::obj-65" : [ "pictctrl[84]", "pictctrl[1]", 0 ],
			"obj-19::obj-20" : [ "letterbox_menu", "letterbox_menu", 0 ],
			"obj-19::obj-37" : [ "aspect_menu", "aspect_menu", 0 ],
			"obj-1::obj-10" : [ "Frequency", "Frequency", 0 ],
			"obj-1::obj-109" : [ "pictctrl[105]", "pictctrl[3]", 0 ],
			"obj-1::obj-113" : [ "pictctrl[104]", "pictctrl[3]", 0 ],
			"obj-1::obj-12" : [ "Waveform[1]", "Waveform", 0 ],
			"obj-1::obj-13" : [ "phase[13]", "Phase", 0 ],
			"obj-1::obj-265" : [ "pictctrl[91]", "pictctrl[3]", 0 ],
			"obj-1::obj-278" : [ "textbutton[3]", "textbutton[1]", 1 ],
			"obj-1::obj-49" : [ "pictctrl[89]", "pictctrl[1]", 0 ],
			"obj-1::obj-91" : [ "pictctrl[106]", "pictctrl[3]", 0 ],
			"obj-1::obj-96" : [ "Multiply", "Multiply", 0 ],
			"obj-33::obj-12" : [ "pictctrl[9]", "pictctrl[1]", 0 ],
			"obj-33::obj-27" : [ "Color 2", "Color 2", 0 ],
			"obj-33::obj-28" : [ "Color 1", "Color 1", 0 ],
			"obj-33::obj-3" : [ "range[1]", "range", 0 ],
			"obj-33::obj-45" : [ "Saturation 1", "Saturation 1", 0 ],
			"obj-33::obj-46" : [ "Saturation 2", "Saturation 2", 0 ],
			"obj-33::obj-49" : [ "pictctrl[10]", "pictctrl[1]", 0 ],
			"obj-33::obj-53" : [ "pictctrl[8]", "pictctrl[1]", 0 ],
			"obj-33::obj-54" : [ "pictctrl[13]", "pictctrl[1]", 0 ],
			"obj-33::obj-56::obj-23" : [ "gswitch2[4]", "gswitch2", 0 ],
			"obj-33::obj-58" : [ "pictctrl[12]", "pictctrl[1]", 0 ],
			"obj-33::obj-62" : [ "pictctrl[14]", "pictctrl[1]", 0 ],
			"obj-33::obj-64" : [ "pictctrl[38]", "pictctrl[1]", 0 ],
			"obj-33::obj-73" : [ "pictctrl[11]", "pictctrl[1]", 0 ],
			"obj-35::obj-104" : [ "pictctrl[45]", "pictctrl[1]", 0 ],
			"obj-35::obj-119" : [ "Brightness", "Brightness", 0 ],
			"obj-35::obj-120" : [ "Brightness range", "Brightness range", 1 ],
			"obj-35::obj-121" : [ "Offset[2]", "Brightness", 0 ],
			"obj-35::obj-127" : [ "Contrast", "Contrast", 0 ],
			"obj-35::obj-128" : [ "Contrast range", "Contrast range", 1 ],
			"obj-35::obj-129" : [ "contrast", "Contrast", 0 ],
			"obj-35::obj-140" : [ "Saturation", "Saturation", 0 ],
			"obj-35::obj-141" : [ "Saturation range", "Saturation range", 1 ],
			"obj-35::obj-142" : [ "saturation[1]", "Saturation", 0 ],
			"obj-35::obj-147" : [ "pictctrl[44]", "pictctrl[1]", 0 ],
			"obj-35::obj-148" : [ "pictctrl[43]", "pictctrl[1]", 0 ],
			"obj-35::obj-149" : [ "pictctrl[42]", "pictctrl[1]", 0 ],
			"obj-35::obj-150" : [ "pictctrl[28]", "pictctrl[1]", 0 ],
			"obj-35::obj-151" : [ "pictctrl[27]", "pictctrl[1]", 0 ],
			"obj-35::obj-56::obj-23" : [ "gswitch2[5]", "gswitch2", 0 ],
			"obj-35::obj-6" : [ "range[5]", "range", 0 ],
			"obj-3::obj-11" : [ "pictctrl[5]", "pictctrl[1]", 0 ],
			"obj-3::obj-16" : [ "pictctrl[7]", "pictctrl[1]", 0 ],
			"obj-3::obj-51" : [ "pictctrl[6]", "pictctrl[1]", 0 ],
			"obj-3::obj-9" : [ "Fader", "Fader", 0 ],
			"obj-6::obj-10" : [ "pictctrl[1]", "pictctrl[1]", 0 ],
			"obj-6::obj-112::obj-119" : [ "Speed high", "Speed high", 0 ],
			"obj-6::obj-112::obj-120" : [ "Rate range", "Rate range", 0 ],
			"obj-6::obj-112::obj-121" : [ "Speed low", "Speed low", 0 ],
			"obj-6::obj-112::obj-16" : [ "Playback range", "Playback range", 0 ],
			"obj-6::obj-112::obj-40" : [ "Playback controls", "Playback controls", 0 ],
			"obj-6::obj-112::obj-79" : [ "Playback position", "Playback position", 0 ],
			"obj-6::obj-112::obj-89" : [ "Reset range", "Reset range", 0 ],
			"obj-6::obj-112::obj-92" : [ "Reset speed", "Reset speed", 0 ],
			"obj-6::obj-20" : [ "pictctrl[2]", "pictctrl[1]", 0 ],
			"obj-6::obj-28" : [ "pictctrl[279]", "pictctrl[1]", 0 ],
			"obj-6::obj-40" : [ "pictctrl[283]", "pictctrl[1]", 0 ],
			"obj-6::obj-51" : [ "moviepath", "moviepath", 0 ],
			"obj-6::obj-60" : [ "pictctrl[282]", "pictctrl[1]", 0 ],
			"obj-6::obj-64" : [ "pictctrl[284]", "pictctrl[1]", 0 ],
			"obj-6::obj-81" : [ "pictctrl[281]", "pictctrl[1]", 0 ],
			"obj-6::obj-83" : [ "pictctrl[280]", "pictctrl[1]", 0 ],
			"obj-6::obj-89" : [ "moviename", "moviename", 0 ],
			"obj-7::obj-14" : [ "umenu[3]", "umenu", 0 ],
			"obj-7::obj-22" : [ "range[7]", "range", 0 ],
			"obj-7::obj-24" : [ "pictctrl[73]", "pictctrl[6]", 0 ],
			"obj-7::obj-30" : [ "pictctrl[71]", "pictctrl[5]", 0 ],
			"obj-7::obj-32" : [ "pictctrl[72]", "pictctrl[7]", 0 ],
			"obj-7::obj-39" : [ "pictctrl[74]", "pictctrl[8]", 0 ],
			"obj-7::obj-41" : [ "pictctrl[70]", "pictctrl[10]", 0 ],
			"obj-7::obj-52::obj-23" : [ "gswitch2[3]", "gswitch2", 0 ],
			"obj-7::obj-94" : [ "umenu[2]", "umenu", 0 ],
			"obj-8::obj-106" : [ "CV3", "CV3", 0 ],
			"obj-8::obj-107" : [ "Linear", "Linear", 0 ],
			"obj-8::obj-11" : [ "PWM", "PWM", 0 ],
			"obj-8::obj-129" : [ "CV2", "CV2", 0 ],
			"obj-8::obj-36" : [ "PW", "PW", 0 ],
			"obj-8::obj-4" : [ "Waveform", "Waveform", 0 ],
			"obj-8::obj-45" : [ "FreqMode", "FreqMode", 0 ],
			"obj-8::obj-46" : [ "Offset", "Offset", 0 ],
			"obj-8::obj-51" : [ "Freq", "Freq", 0 ],
			"obj-8::obj-53" : [ "Mute", "Mute", 0 ],
			"parameterbanks" : 			{

			}
,
			"parameter_overrides" : 			{
				"obj-15::obj-104" : 				{
					"parameter_longname" : "pictctrl[47]"
				}
,
				"obj-15::obj-26" : 				{
					"parameter_longname" : "pictctrl[46]"
				}
,
				"obj-16::obj-50" : 				{
					"parameter_longname" : "pictctrl[4]"
				}
,
				"obj-16::obj-58" : 				{
					"parameter_longname" : "pictctrl[3]"
				}
,
				"obj-1::obj-12" : 				{
					"parameter_longname" : "Waveform[1]"
				}
,
				"obj-33::obj-12" : 				{
					"parameter_longname" : "pictctrl[9]"
				}
,
				"obj-33::obj-49" : 				{
					"parameter_longname" : "pictctrl[10]"
				}
,
				"obj-33::obj-53" : 				{
					"parameter_longname" : "pictctrl[8]"
				}
,
				"obj-33::obj-54" : 				{
					"parameter_longname" : "pictctrl[13]"
				}
,
				"obj-33::obj-58" : 				{
					"parameter_longname" : "pictctrl[12]"
				}
,
				"obj-33::obj-62" : 				{
					"parameter_longname" : "pictctrl[14]"
				}
,
				"obj-33::obj-64" : 				{
					"parameter_longname" : "pictctrl[38]"
				}
,
				"obj-33::obj-73" : 				{
					"parameter_longname" : "pictctrl[11]"
				}
,
				"obj-35::obj-104" : 				{
					"parameter_longname" : "pictctrl[45]"
				}
,
				"obj-3::obj-16" : 				{
					"parameter_longname" : "pictctrl[7]"
				}

			}
,
			"inherited_shortname" : 1
		}
,
		"dependency_cache" : [ 			{
				"name" : "bp.Big Scope.maxpat",
				"bootpath" : "C74:/packages/BEAP/clippings/BEAP/Scope",
				"type" : "JSON",
				"implicit" : 1
			}
, 			{
				"name" : "bp.Oscillator.maxpat",
				"bootpath" : "C74:/packages/BEAP/clippings/BEAP/Oscillator",
				"type" : "JSON",
				"implicit" : 1
			}
, 			{
				"name" : "brcosa.genjit",
				"bootpath" : "~/Library/Application Support/Cycling '74/Max 8/Examples/jitter-examples/gen",
				"patcherrelativepath" : "../../../../Library/Application Support/Cycling '74/Max 8/Examples/jitter-examples/gen",
				"type" : "gJIT",
				"implicit" : 1
			}
, 			{
				"name" : "colorizer.genjit",
				"bootpath" : "C74:/packages/Vizzie/patchers/gen",
				"type" : "gJIT",
				"implicit" : 1
			}
, 			{
				"name" : "data-handler-L.maxpat",
				"bootpath" : "C74:/packages/Vizzie/patchers/utils",
				"type" : "JSON",
				"implicit" : 1
			}
, 			{
				"name" : "data-handler.maxpat",
				"bootpath" : "C74:/packages/Vizzie/patchers/utils",
				"type" : "JSON",
				"implicit" : 1
			}
, 			{
				"name" : "exact_menu.maxpat",
				"bootpath" : "C74:/packages/Vizzie/patchers/utils",
				"type" : "JSON",
				"implicit" : 1
			}
, 			{
				"name" : "gen-LFO.gendsp",
				"bootpath" : "C74:/packages/Vizzie/patchers/gen",
				"type" : "gDSP",
				"implicit" : 1
			}
, 			{
				"name" : "lo_hi_UI_control.maxpat",
				"bootpath" : "C74:/packages/Vizzie/patchers/utils",
				"type" : "JSON",
				"implicit" : 1
			}
, 			{
				"name" : "playr_controls.maxpat",
				"bootpath" : "C74:/packages/Vizzie/patchers/utils",
				"type" : "JSON",
				"implicit" : 1
			}
, 			{
				"name" : "sine.svg",
				"bootpath" : "C74:/media/max/picts/m4l-picts",
				"type" : "svg",
				"implicit" : 1
			}
, 			{
				"name" : "snapshot_UI.maxpat",
				"bootpath" : "C74:/packages/Vizzie/patchers/utils",
				"type" : "JSON",
				"implicit" : 1
			}
, 			{
				"name" : "square.svg",
				"bootpath" : "C74:/media/max/picts/m4l-picts",
				"type" : "svg",
				"implicit" : 1
			}
, 			{
				"name" : "up.svg",
				"bootpath" : "C74:/media/max/picts/m4l-picts",
				"type" : "svg",
				"implicit" : 1
			}
, 			{
				"name" : "updown.svg",
				"bootpath" : "C74:/media/max/picts/m4l-picts",
				"type" : "svg",
				"implicit" : 1
			}
, 			{
				"name" : "video-handler.maxpat",
				"bootpath" : "C74:/packages/Vizzie/patchers/utils",
				"type" : "JSON",
				"implicit" : 1
			}
, 			{
				"name" : "vizzie-datatexconvert.js",
				"bootpath" : "C74:/packages/Vizzie/code",
				"type" : "TEXT",
				"implicit" : 1
			}
, 			{
				"name" : "vizzie-global.js",
				"bootpath" : "C74:/packages/Vizzie/code",
				"type" : "TEXT",
				"implicit" : 1
			}
, 			{
				"name" : "vz.2tonr.maxpat",
				"bootpath" : "C74:/packages/Vizzie/patchers",
				"type" : "JSON",
				"implicit" : 1
			}
, 			{
				"name" : "vz.analyzr.maxpat",
				"bootpath" : "C74:/packages/Vizzie/patchers",
				"type" : "JSON",
				"implicit" : 1
			}
, 			{
				"name" : "vz.brcosr.maxpat",
				"bootpath" : "C74:/packages/Vizzie/patchers",
				"type" : "JSON",
				"implicit" : 1
			}
, 			{
				"name" : "vz.colorizr.maxpat",
				"bootpath" : "C74:/packages/Vizzie/patchers",
				"type" : "JSON",
				"implicit" : 1
			}
, 			{
				"name" : "vz.fadr.maxpat",
				"bootpath" : "C74:/packages/Vizzie/patchers",
				"type" : "JSON",
				"implicit" : 1
			}
, 			{
				"name" : "vz.oscil8r.maxpat",
				"bootpath" : "C74:/packages/Vizzie/patchers",
				"type" : "JSON",
				"implicit" : 1
			}
, 			{
				"name" : "vz.playr.maxpat",
				"bootpath" : "C74:/packages/Vizzie/patchers",
				"type" : "JSON",
				"implicit" : 1
			}
, 			{
				"name" : "vz.viewr.maxpat",
				"bootpath" : "C74:/packages/Vizzie/patchers",
				"type" : "JSON",
				"implicit" : 1
			}
, 			{
				"name" : "vz.vizzieconvertr.maxpat",
				"bootpath" : "C74:/packages/Vizzie/patchers",
				"type" : "JSON",
				"implicit" : 1
			}
, 			{
				"name" : "vzgl-blackframe.maxpat",
				"bootpath" : "C74:/packages/Vizzie/patchers/utils",
				"type" : "JSON",
				"implicit" : 1
			}
, 			{
				"name" : "vzgl-context.maxpat",
				"bootpath" : "C74:/packages/Vizzie/patchers/utils",
				"type" : "JSON",
				"implicit" : 1
			}
, 			{
				"name" : "vzgl-disable.maxpat",
				"bootpath" : "C74:/packages/Vizzie/patchers/utils",
				"type" : "JSON",
				"implicit" : 1
			}
, 			{
				"name" : "vzgl-object.maxpat",
				"bootpath" : "C74:/packages/Vizzie/patchers/utils",
				"type" : "JSON",
				"implicit" : 1
			}
, 			{
				"name" : "vzgl-outputdim.maxpat",
				"bootpath" : "C74:/packages/Vizzie/patchers/utils",
				"type" : "JSON",
				"implicit" : 1
			}
, 			{
				"name" : "vzgl-pwindow.maxpat",
				"bootpath" : "C74:/packages/Vizzie/patchers/utils",
				"type" : "JSON",
				"implicit" : 1
			}
, 			{
				"name" : "windowresize.js",
				"bootpath" : "C74:/packages/Vizzie/code",
				"type" : "TEXT",
				"implicit" : 1
			}
 ],
		"autosave" : 0
	}

}
